<svg width="81" height="98" viewBox="0 0 81 98" fill="none" xmlns="http://www.w3.org/2000/svg">
<path d="M21 55.6838C18.2957 67.6795 13.6673 74.1153 1 85.1838L16.5 79.5474L17 95.5474C23.7144 84.3172 27.3813 77.7084 33.5 64.5474M51.5 66.0474C55.1033 79.5918 58.0946 86.241 64 97.5474V83.0474L74.5 89.252C67.8947 78.4362 64.8556 72.3376 63.5 61.252M31 30.0474L43.5 46.5474L80.4493 9.04761C79.8191 5.66637 78.355 5.10245 74.9493 5.04761L43.5 36.0474L33 22.5474C29.8898 24.5275 29.5859 26.2282 31 30.0474Z" stroke="black"/>
<path d="M66.5002 9.04862C26.5003 -20.4523 -7.52603 40.4374 26.5002 60.5486C60.5264 80.6598 89.8971 44.8203 74.5002 19.0486" stroke="black" stroke-linecap="round"/>
</svg>
